<?xml version="1.0" ?><svg xmlns="http://www.w3.org/2000/svg" xmlns:xlink="http://www.w3.org/1999/xlink" version="1.1" viewBox="0 0 512 512" style="enable-background:new 0 0 512 512;" xml:space="preserve"><g id="_x34_8_x2C__Flour_x2C__Cereal_x2C__Grain_x2C__Food_x2C__Farming_and_Gardening"><g><path style="fill:#B9741B;" d="M431,440.668h-2.35c7.98-46.33,11.97-93.16,11.97-140c0-63.76-7.39-107.53-22.19-170L256,107.508    l-162.43,23.16c-14.8,62.47-22.19,106.24-22.19,170c0,46.84,3.99,93.67,11.97,140H81c-16.56,0-30,13.44-30,30    c0,16.57,13.43,30,30,30c69.416,0,279.989,0,350,0c16.56,0,30-13.44,30-30C461,454.098,447.57,440.668,431,440.668z"/><path style="fill:#E3EFFC;" d="M256,210.998c-57.81,0-104.67,46.86-104.67,104.67c0,57.8,46.86,104.66,104.67,104.66    s104.67-46.86,104.67-104.66C360.67,257.858,313.81,210.998,256,210.998z"/><path style="fill:#FAF0AF;" d="M411,80.668l-148,20.83L86,80.668c0-23.19,17.66-42.54,40.74-44.69    c8.71-0.81,18.31-1.58,28.26-2.18c53.2-3.18,106.03-10.46,158.41-20.29c12.39-2.33,25.95-3.06,40.02-0.84    C386.7,17.928,411,46.978,411,80.668z"/><path style="fill:#804D12;" d="M426,80.668c13.81,0,25,11.19,25,25c0,13.82-11.2,25-25,25h-7.57c-15.59,0-313.62,0-332.43,0    c-13.81,0-25-11.19-25-25c0-13.83,11.2-25,25-25C99.484,80.668,403.982,80.668,426,80.668z"/><path style="fill:#86ED7F;" d="M294.27,290.998c-21.14,0-38.27,17.13-38.27,38.27c0-21.14-17.13-38.27-38.27-38.27H196v11.73    c0,21.14,17.13,38.27,38.27,38.27H256h21.73c21.14,0,38.27-17.13,38.27-38.27v-11.73H294.27z"/><g><g><path d="M440.263,431.747c6.875-43.274,10.357-87.316,10.357-131.082c0-60.865-6.89-104.729-19.671-160.356      C447.912,137.896,461,123.283,461,105.665c0-19.299-15.701-35-35-35h-5.642c-4.338-34.264-30.65-62.387-65.369-67.872      c-13.944-2.205-28.553-1.907-43.42,0.883c-56.536,10.61-107.947,17.199-157.17,20.143c-9.126,0.546-18.743,1.287-28.585,2.204      c-25.436,2.37-45.257,21.467-49.119,45.908C61.9,76.017,51,89.588,51,105.665c0,17.618,13.088,32.231,30.051,34.644      C68.27,195.936,61.38,239.8,61.38,300.665c0,43.766,3.482,87.808,10.357,131.082C54.133,435.937,41,451.797,41,470.665      c0,22.056,17.944,40,40,40c50.714,0,301.242,0,350,0c22.056,0,40-17.944,40-40C471,451.797,457.867,435.937,440.263,431.747z       M127.67,45.936c9.622-0.896,19.017-1.621,27.923-2.153c50.069-2.994,102.296-9.684,159.666-20.451      c12.611-2.365,24.928-2.63,36.608-0.785c25.145,3.974,44.189,23.508,48.297,48.118H97.442      C101.39,57.31,113.078,47.296,127.67,45.936z M71,105.665c0-8.271,6.729-15,15-15h340c8.271,0,15,6.729,15,15s-6.729,15-15,15      H86C77.729,120.665,71,113.936,71,105.665z M431,490.665c-48.807,0-299.358,0-350,0c-11.028,0-20-8.972-20-20s8.972-20,20-20      c0.1-0.042,14.367,0.85,12.204-11.697C85.358,393.411,81.38,346.88,81.38,300.665c0-60.853,6.774-102.677,20.116-160h309.009      c13.342,57.323,20.116,99.147,20.116,160c0,46.215-3.979,92.746-11.824,138.303c-2.163,12.55,12.104,11.655,12.204,11.697      c11.028,0,20,8.972,20,20S442.028,490.665,431,490.665z"/><path d="M256,200.998c-63.228,0-114.667,51.439-114.667,114.667S192.772,430.331,256,430.331s114.667-51.438,114.667-114.666      S319.228,200.998,256,200.998z M256,410.331c-52.199,0-94.667-42.467-94.667-94.666s42.468-94.667,94.667-94.667      s94.667,42.468,94.667,94.667S308.199,410.331,256,410.331z"/><path d="M294.267,280.998c-10.551,0-20.315,3.413-28.267,9.179v-9.179c0-5.522-4.478-10-10-10s-10,4.478-10,10v9.179      c-7.951-5.766-17.715-9.179-28.267-9.179H196c-5.522,0-10,4.478-10,10v11.733c0,26.614,21.652,48.267,48.267,48.267H246v20      c0,5.522,4.478,10,10,10s10-4.478,10-10v-20h11.733c26.614,0,48.267-21.652,48.267-48.267v-11.733c0-5.522-4.478-10-10-10      H294.267z M206,302.731v-1.733h11.733c15.586,0,28.267,12.681,28.267,28.267v1.733h-11.733      C218.681,330.998,206,318.317,206,302.731z M306,302.731c0,15.586-12.681,28.267-28.267,28.267H266v-1.733      c0-15.586,12.681-28.267,28.267-28.267H306V302.731z"/></g></g></g></g><g id="Layer_1"/></svg>